<svg xmlns="http://www.w3.org/2000/svg" viewBox="0 0 40 40"><defs><style>.cls-1{fill:red;opacity:0;}.cls-2{fill:#191919;}</style></defs><title>자산 4</title><g id="레이어_2" data-name="레이어 2"><g id="레이어_2-2" data-name="레이어 2"><rect class="cls-1" width="40" height="40"/><path class="cls-2" d="M20,6a6,6,0,1,1-6,6,6,6,0,0,1,6-6m0-2a8,8,0,1,0,8,8,8,8,0,0,0-8-8Z"/><path class="cls-2" d="M19.5,24c6.68,0,12.24,4.33,13.31,10H6.19c1.07-5.67,6.63-10,13.31-10m0-2C10.94,22,4,28.27,4,36H35c0-7.73-6.94-14-15.5-14Z"/></g></g></svg>