<svg xmlns="http://www.w3.org/2000/svg" viewBox="0 0 48 48"><defs><style>.cls-1{fill:#ed1c24;opacity:0;}.cls-2{fill:#191919;}</style></defs><title>자산 6</title><g id="레이어_2" data-name="레이어 2"><g id="레이어_2-2" data-name="레이어 2"><rect class="cls-1" width="48" height="48"/></g><g id="레이어_3" data-name="레이어 3"><path class="cls-2" d="M24,27.5c9.63,0,17.57,6.6,18.42,15H5.58c.85-8.4,8.79-15,18.42-15M24,26C13,26,4,34.06,4,44H44c0-9.94-9-18-20-18Z"/><path class="cls-2" d="M24,5.5A7.5,7.5,0,1,1,16.5,13,7.5,7.5,0,0,1,24,5.5M24,4a9,9,0,1,0,9,9,9,9,0,0,0-9-9Z"/></g></g></svg>